<?xml version="1.0" encoding="utf-8"?>
<!-- Generator: Adobe Illustrator 25.0.1, SVG Export Plug-In . SVG Version: 6.00 Build 0)  -->
<svg version="1.1" id="레이어_1" xmlns="http://www.w3.org/2000/svg" xmlns:xlink="http://www.w3.org/1999/xlink" x="0px"
	 y="0px" width="24px" height="24px" viewBox="0 0 24 24" style="enable-background:new 0 0 24 24;" xml:space="preserve">
<style type="text/css">
	.st0{fill:#0044FE;}
	.st1{fill-rule:evenodd;clip-rule:evenodd;fill:#0044FE;}
</style>
<path class="st0" d="M17,7h-5v1.5h5V7z"/>
<path class="st0" d="M12,10.5h5V12h-5V10.5z"/>
<path class="st1" d="M8,5v2.5H4C3.2,7.5,2.5,8.2,2.5,9v11.5h11v-4h2v4H21V5c0-0.8-0.7-1.5-1.5-1.5h-10C8.7,3.5,8,4.2,8,5z M8,9H4v10
	h4v-3.5H6V14h2v-1.5H6V11h2V9z M9.5,19H12v-3c0-0.6,0.4-1,1-1h3c0.6,0,1,0.4,1,1v3h2.5V5h-10V19z"/>
</svg>
