<?xml version="1.0" encoding="utf-8"?>
<!-- Generator: Adobe Illustrator 25.0.1, SVG Export Plug-In . SVG Version: 6.00 Build 0)  -->
<svg version="1.1" id="레이어_1" xmlns="http://www.w3.org/2000/svg" xmlns:xlink="http://www.w3.org/1999/xlink" x="0px"
	 y="0px" width="24px" height="24px" viewBox="0 0 24 24" style="enable-background:new 0 0 24 24;" xml:space="preserve">
<style type="text/css">
	.st0{fill:#656565;}
	.st1{fill-rule:evenodd;clip-rule:evenodd;fill:#656565;}
</style>
<path class="st0" d="M14,10.9c0.4,0,0.7,0.3,0.7,0.7v6.1c0,0.4-0.3,0.7-0.7,0.7s-0.7-0.3-0.7-0.7v-6.1C13.3,11.2,13.6,10.9,14,10.9z
	"/>
<path class="st0" d="M10.7,11.6c0-0.4-0.3-0.7-0.7-0.7c-0.4,0-0.7,0.3-0.7,0.7v6.1c0,0.4,0.3,0.7,0.7,0.7c0.4,0,0.7-0.3,0.7-0.7
	V11.6z"/>
<path class="st1" d="M10.5,3C9.7,3,9,3.6,9,4.4v0.2H5.5C4.7,4.6,4,5.3,4,6.1v2c0,0.7,0.6,1.3,1.3,1.4v10.1C5.3,20.4,6,21,6.8,21
	h10.4c0.8,0,1.5-0.6,1.5-1.4V9.5C19.4,9.4,20,8.8,20,8v-2c0-0.8-0.7-1.4-1.5-1.4H15V4.4C15,3.6,14.3,3,13.5,3H10.5z M17.2,9.5H6.8
	v10.1h10.4V9.5z M18.5,8v-2h-4.3c-0.4,0-0.7-0.3-0.7-0.7V4.4h-3v0.9c0,0.4-0.3,0.7-0.7,0.7H5.5v2H18.5z"/>
</svg>
