<?xml version="1.0" encoding="utf-8"?>
<!-- Generator: Adobe Illustrator 25.0.1, SVG Export Plug-In . SVG Version: 6.00 Build 0)  -->
<svg version="1.1" id="레이어_1" xmlns="http://www.w3.org/2000/svg" xmlns:xlink="http://www.w3.org/1999/xlink" x="0px"
	 y="0px" width="11px" height="12px" viewBox="0 0 11 12" style="enable-background:new 0 0 11 12;" xml:space="preserve">
<style type="text/css">
	.st0{fill-rule:evenodd;clip-rule:evenodd;fill:#C1C1C1;}
</style>
<path class="st0" d="M6.5,11.5c0.3-0.3,0.3-0.8,0-1.1L2.1,6l4.5-4.5c0.3-0.3,0.3-0.8,0-1.1c-0.3-0.3-0.8-0.3-1.1,0l-5,5
	c-0.3,0.3-0.3,0.8,0,1.1l5,5C5.8,11.8,6.2,11.8,6.5,11.5z"/>
<path class="st0" d="M10.5,11.5c0.3-0.3,0.3-0.8,0-1.1L6.1,6l4.5-4.5c0.3-0.3,0.3-0.8,0-1.1s-0.8-0.3-1.1,0l-5,5
	c-0.3,0.3-0.3,0.8,0,1.1l5,5C9.8,11.8,10.2,11.8,10.5,11.5z"/>
</svg>
