<?xml version="1.0" encoding="utf-8"?>
<!-- Generator: Adobe Illustrator 25.0.1, SVG Export Plug-In . SVG Version: 6.00 Build 0)  -->
<svg version="1.1" id="레이어_1" xmlns="http://www.w3.org/2000/svg" xmlns:xlink="http://www.w3.org/1999/xlink" x="0px"
	 y="0px" width="24px" height="24px" viewBox="0 0 24 24" style="enable-background:new 0 0 24 24;" xml:space="preserve">
<style type="text/css">
	.st0{fill-rule:evenodd;clip-rule:evenodd;fill:#0044FE;}
	.st1{fill-rule:evenodd;clip-rule:evenodd;fill:#0044FE;fill-opacity:0.2;}
</style>
<path class="st0" d="M3.5,5c0-0.8,0.7-1.5,1.5-1.5h8v8H3.5V5z M5,5v5h6.5V5H5z"/>
<path class="st1" d="M3.5,5c0-0.8,0.7-1.5,1.5-1.5h8v8H3.5V5z M5,5v5h6.5V5H5z"/>
<path class="st0" d="M3.5,13h17v6c0,0.8-0.7,1.5-1.5,1.5H5c-0.8,0-1.5-0.7-1.5-1.5V13z M5,14.5V19h14v-4.5H5z"/>
<path class="st1" d="M3.5,13h17v6c0,0.8-0.7,1.5-1.5,1.5H5c-0.8,0-1.5-0.7-1.5-1.5V13z M5,14.5V19h14v-4.5H5z"/>
<path class="st0" d="M19,3.5h-4.5v8h6V5C20.5,4.2,19.8,3.5,19,3.5z M16,10V5h3v5H16z"/>
<path class="st1" d="M19,3.5h-4.5v8h6V5C20.5,4.2,19.8,3.5,19,3.5z M16,10V5h3v5H16z"/>
</svg>
