<svg width="24" height="24" viewBox="0 0 24 24" fill="none" xmlns="http://www.w3.org/2000/svg">
<path d="M16.0303 7.03033C16.3232 6.73744 16.3232 6.26256 16.0303 5.96967C15.7374 5.67678 15.2626 5.67678 14.9697 5.96967L11 9.93934L9.03033 7.96967C8.73744 7.67678 8.26256 7.67678 7.96967 7.96967C7.67678 8.26256 7.67678 8.73744 7.96967 9.03033L10.4697 11.5303C10.7626 11.8232 11.2374 11.8232 11.5303 11.5303L16.0303 7.03033Z" fill="black"/>
<path d="M16.0303 7.03033C16.3232 6.73744 16.3232 6.26256 16.0303 5.96967C15.7374 5.67678 15.2626 5.67678 14.9697 5.96967L11 9.93934L9.03033 7.96967C8.73744 7.67678 8.26256 7.67678 7.96967 7.96967C7.67678 8.26256 7.67678 8.73744 7.96967 9.03033L10.4697 11.5303C10.7626 11.8232 11.2374 11.8232 11.5303 11.5303L16.0303 7.03033Z" fill="black" fill-opacity="0.2"/>
<path d="M7.25 14C7.25 13.5858 7.58579 13.25 8 13.25L16 13.25C16.4142 13.25 16.75 13.5858 16.75 14C16.75 14.4142 16.4142 14.75 16 14.75L8 14.75C7.58579 14.75 7.25 14.4142 7.25 14Z" fill="black"/>
<path d="M7.25 14C7.25 13.5858 7.58579 13.25 8 13.25L16 13.25C16.4142 13.25 16.75 13.5858 16.75 14C16.75 14.4142 16.4142 14.75 16 14.75L8 14.75C7.58579 14.75 7.25 14.4142 7.25 14Z" fill="black" fill-opacity="0.2"/>
<path d="M8 16.25C7.58579 16.25 7.25 16.5858 7.25 17C7.25 17.4142 7.58579 17.75 8 17.75H16C16.4142 17.75 16.75 17.4142 16.75 17C16.75 16.5858 16.4142 16.25 16 16.25H8Z" fill="black"/>
<path d="M8 16.25C7.58579 16.25 7.25 16.5858 7.25 17C7.25 17.4142 7.58579 17.75 8 17.75H16C16.4142 17.75 16.75 17.4142 16.75 17C16.75 16.5858 16.4142 16.25 16 16.25H8Z" fill="black" fill-opacity="0.2"/>
<path fill-rule="evenodd" clip-rule="evenodd" d="M4.5 2.75C4.08579 2.75 3.75 3.08579 3.75 3.5V20.5C3.75 20.9142 4.08579 21.25 4.5 21.25H19.5C19.9142 21.25 20.25 20.9142 20.25 20.5V3.5C20.25 3.08579 19.9142 2.75 19.5 2.75H4.5ZM5.25 19.75V4.25H18.75V19.75H5.25Z" fill="black"/>
<path fill-rule="evenodd" clip-rule="evenodd" d="M4.5 2.75C4.08579 2.75 3.75 3.08579 3.75 3.5V20.5C3.75 20.9142 4.08579 21.25 4.5 21.25H19.5C19.9142 21.25 20.25 20.9142 20.25 20.5V3.5C20.25 3.08579 19.9142 2.75 19.5 2.75H4.5ZM5.25 19.75V4.25H18.75V19.75H5.25Z" fill="black" fill-opacity="0.2"/>
</svg>
