<?xml version="1.0" encoding="utf-8"?>
<!-- Generator: Adobe Illustrator 25.0.1, SVG Export Plug-In . SVG Version: 6.00 Build 0)  -->
<svg version="1.1" id="레이어_1" xmlns="http://www.w3.org/2000/svg" xmlns:xlink="http://www.w3.org/1999/xlink" x="0px"
	 y="0px" width="24px" height="24px" viewBox="0 0 24 24" style="enable-background:new 0 0 24 24;" xml:space="preserve">
<style type="text/css">
	.st0{fill-rule:evenodd;clip-rule:evenodd;fill:#0B1293;}
</style>
<path class="st0" d="M12.5,2.2l0.9,0.1c4.7,0.7,8.4,4.7,8.4,9.7c0,0.1,0,0.3,0,0.4l0,0.9l-6.4-1.4l-0.1-0.5C15,10.2,14.1,9.3,13,8.9
	l-0.5-0.2V2.2z M11.5,2.2v6.5L11,8.9C9.7,9.3,8.8,10.6,8.8,12c0,1.8,1.5,3.2,3.2,3.2c0.1,0,0.1,0,0.2,0l0.5,0l2.3,6.1l-0.8,0.2
	c-0.7,0.2-1.4,0.2-2.2,0.2c-5.4,0-9.8-4.4-9.8-9.8c0-4.9,3.7-9,8.4-9.7L11.5,2.2z M14,4v3.7c1.2,0.6,2.2,1.7,2.6,3l3.7,0.8
	C20,7.8,17.4,4.8,14,4z M10,4c-3.6,0.9-6.2,4.1-6.2,8c0,4.6,3.7,8.3,8.2,8.3c0.3,0,0.7,0,1-0.1l-1.3-3.5c-2.5-0.2-4.4-2.2-4.4-4.7
	c0-1.9,1.1-3.6,2.7-4.3V4z M15.2,12.9l6.3,1.4l-0.3,0.8c-0.8,2.3-2.4,4.3-4.5,5.4L15.9,21l-2.3-6.1l0.4-0.3c0.4-0.3,0.6-0.7,0.9-1.1
	L15.2,12.9z M16,14.6c-0.2,0.2-0.3,0.5-0.5,0.7l1.3,3.5c1.2-0.8,2.2-2,2.8-3.4L16,14.6z"/>
</svg>
