<?xml version="1.0" encoding="utf-8"?>
<!-- Generator: Adobe Illustrator 25.0.1, SVG Export Plug-In . SVG Version: 6.00 Build 0)  -->
<svg version="1.1" id="레이어_1" xmlns="http://www.w3.org/2000/svg" xmlns:xlink="http://www.w3.org/1999/xlink" x="0px"
	 y="0px" width="16px" height="16px" viewBox="0 0 16 16" style="enable-background:new 0 0 16 16;" xml:space="preserve">
<style type="text/css">
	.st0{fill-rule:evenodd;clip-rule:evenodd;fill:#0044FE;}
</style>
<path class="st0" d="M8,0.3C6,0.3,4.3,2,4.3,4c0,1.6,1,2.9,2.4,3.4C3.1,8,0.3,11.2,0.3,15c0,0.4,0.3,0.7,0.7,0.7
	c0.4,0,0.7-0.3,0.7-0.7c0-3.5,2.8-6.3,6.3-6.3c3.5,0,6.3,2.8,6.3,6.3c0,0.4,0.3,0.7,0.7,0.7s0.7-0.3,0.7-0.7c0-3.8-2.8-7-6.4-7.6
	c1.4-0.5,2.4-1.9,2.4-3.4C11.7,2,10,0.3,8,0.3z M5.7,4c0-1.3,1-2.3,2.3-2.3s2.3,1,2.3,2.3S9.3,6.3,8,6.3S5.7,5.3,5.7,4z"/>
</svg>
