<?xml version="1.0" encoding="utf-8"?>
<!-- Generator: Adobe Illustrator 25.0.1, SVG Export Plug-In . SVG Version: 6.00 Build 0)  -->
<svg version="1.1" id="레이어_1" xmlns="http://www.w3.org/2000/svg" xmlns:xlink="http://www.w3.org/1999/xlink" x="0px"
	 y="0px" width="24px" height="24px" viewBox="0 0 24 24" style="enable-background:new 0 0 24 24;" xml:space="preserve">
<style type="text/css">
	.st0{fill:#656565;}
	.st1{fill-rule:evenodd;clip-rule:evenodd;fill:#656565;}
</style>
<path class="st0" d="M16,7c0.3-0.3,0.3-0.8,0-1.1c-0.3-0.3-0.8-0.3-1.1,0l-4,4L9,8C8.7,7.7,8.3,7.7,8,8C7.7,8.3,7.7,8.7,8,9l2.5,2.5
	c0.3,0.3,0.8,0.3,1.1,0L16,7z"/>
<path class="st0" d="M7.2,14c0-0.4,0.3-0.8,0.8-0.8h8c0.4,0,0.8,0.3,0.8,0.8s-0.3,0.8-0.8,0.8H8C7.6,14.7,7.2,14.4,7.2,14z"/>
<path class="st0" d="M8,16.2c-0.4,0-0.8,0.3-0.8,0.8s0.3,0.8,0.8,0.8h8c0.4,0,0.8-0.3,0.8-0.8s-0.3-0.8-0.8-0.8H8z"/>
<path class="st1" d="M4.5,2.7c-0.4,0-0.8,0.3-0.8,0.8v17c0,0.4,0.3,0.8,0.8,0.8h15c0.4,0,0.8-0.3,0.8-0.8v-17c0-0.4-0.3-0.8-0.8-0.8
	H4.5z M5.2,19.7V4.2h13.5v15.5H5.2z"/>
</svg>
