<?xml version="1.0" encoding="utf-8"?>
<!-- Generator: Adobe Illustrator 25.0.1, SVG Export Plug-In . SVG Version: 6.00 Build 0)  -->
<svg version="1.1" id="레이어_1" xmlns="http://www.w3.org/2000/svg" xmlns:xlink="http://www.w3.org/1999/xlink" x="0px"
	 y="0px" width="24px" height="24px" viewBox="0 0 24 24" style="enable-background:new 0 0 24 24;" xml:space="preserve">
<style type="text/css">
	.st0{fill-rule:evenodd;clip-rule:evenodd;fill:#0B1293;}
	.st1{fill:#0B1293;}
</style>
<path class="st0" d="M6.2,6.7h6.5v9.5H6.2V6.7z M7.8,8.2v6.5h3.5V8.2H7.8z"/>
<path class="st0" d="M17.8,6.7H14v4.5h3.8V6.7z M15.5,9.7V8.2h0.8v1.5H15.5z"/>
<path class="st1" d="M17.8,13.7H14v-1.5h3.8V13.7z"/>
<path class="st1" d="M14,16.2h3.8v-1.5H14V16.2z"/>
<path class="st0" d="M3,20.5V5c0-0.8,0.7-1.5,1.5-1.5h15C20.3,3.5,21,4.2,21,5v15.5h-3c-0.7,0-1.2-0.4-1.4-1H7.4
	c-0.2,0.6-0.8,1-1.4,1H3z M19.5,19H18c0-0.6-0.4-1-1-1H7c-0.6,0-1,0.4-1,1H4.5V5h15V19z"/>
</svg>
