<?xml version="1.0" encoding="utf-8"?>
<!-- Generator: Adobe Illustrator 25.0.1, SVG Export Plug-In . SVG Version: 6.00 Build 0)  -->
<svg version="1.1" id="레이어_1" xmlns="http://www.w3.org/2000/svg" xmlns:xlink="http://www.w3.org/1999/xlink" x="0px"
	 y="0px" width="24px" height="24px" viewBox="0 0 24 24" style="enable-background:new 0 0 24 24;" xml:space="preserve">
<style type="text/css">
	.st0{fill-rule:evenodd;clip-rule:evenodd;fill:#0B1293;}
</style>
<path class="st0" d="M11.8,2.3c-0.2-0.1-0.4-0.1-0.6,0L2.6,6.8C2.4,7,2.2,7.2,2.2,7.5v10c0,0.3,0.2,0.6,0.5,0.7l10,4
	c0.2,0.1,0.5,0.1,0.7-0.1l8-5c0.2-0.1,0.4-0.4,0.4-0.6v-10c0-0.3-0.2-0.6-0.5-0.7L11.8,2.3z M4.8,7.4l6.8-3.6l1.6,0.6L6.6,8.1
	L4.8,7.4z M5.5,9.3L3.8,8.6V17l8.5,3.4V12L10,11.1v4.4c0,0.2-0.1,0.4-0.3,0.5c-0.2,0.1-0.4,0-0.6-0.2l-1.7-2.1l-1.1,0.7
	c-0.2,0.1-0.4,0.1-0.5,0S5.5,14.2,5.5,14V9.3z M9,10.7v3.4l-1.1-1.4c-0.2-0.2-0.5-0.2-0.7-0.1l-0.7,0.5V9.7L9,10.7z M9.6,9.3
	L7.7,8.6l6.6-3.7l1.7,0.6L9.6,9.3z M10.8,9.8l2.1,0.9l6.4-4l-2-0.8L10.8,9.8z M13.8,11.9l6.5-4.1v8.2l-6.5,4.1V11.9z"/>
</svg>
