<svg width="16" height="16" viewBox="0 0 16 16" fill="none" xmlns="http://www.w3.org/2000/svg">
<path fill-rule="evenodd" clip-rule="evenodd" d="M12.0659 3.93403C12.3588 4.22692 12.3588 4.70179 12.0659 4.99469L9.06066 7.99989L12.0659 11.0051C12.3588 11.298 12.3588 11.7729 12.0659 12.0658C11.773 12.3586 11.2981 12.3586 11.0052 12.0658L8 9.06055L4.9948 12.0658C4.7019 12.3586 4.22703 12.3586 3.93414 12.0658C3.64124 11.7729 3.64124 11.298 3.93414 11.0051L6.93934 7.99989L3.93414 4.99469C3.64124 4.70179 3.64124 4.22692 3.93414 3.93403C4.22703 3.64113 4.7019 3.64113 4.9948 3.93403L8 6.93923L11.0052 3.93403C11.2981 3.64113 11.773 3.64113 12.0659 3.93403Z" fill="#0B1293"/>
</svg>
