<?xml version="1.0" encoding="utf-8"?>
<!-- Generator: Adobe Illustrator 25.0.1, SVG Export Plug-In . SVG Version: 6.00 Build 0)  -->
<svg version="1.1" id="레이어_1" xmlns="http://www.w3.org/2000/svg" xmlns:xlink="http://www.w3.org/1999/xlink" x="0px"
	 y="0px" width="24px" height="24px" viewBox="0 0 24 24" style="enable-background:new 0 0 24 24;" xml:space="preserve">
<style type="text/css">
	.st0{fill-rule:evenodd;clip-rule:evenodd;fill:#4267EB;}
</style>
<path class="st0" d="M13.6,2.4c0.6-0.6,1.5-0.6,2.1,0l5.8,5.8c0.6,0.6,0.6,1.5,0,2.1l-9.5,9.5c-0.1,0.1-0.3,0.2-0.5,0.2H5.1
	l-0.8,0.8c-0.3,0.3-0.8,0.3-1.1,0c-0.3-0.3-0.3-0.8,0-1L4,18.9v-6.6c0-0.2,0.1-0.4,0.2-0.5L13.6,2.4z M5.5,18.5h4.3l-4.3-4.4V18.5z
	 M5.8,12.3l1.1,1.1l8.9-8.9l-1.1-1.1L5.8,12.3z M16.8,5.6l-8.9,8.9l1.7,1.7l8.9-8.9L16.8,5.6z M19.6,8.3l-9,8.9l0.9,0.9l9-8.9
	L19.6,8.3z"/>
</svg>
