<?xml version="1.0" encoding="utf-8"?>
<!-- Generator: Adobe Illustrator 25.0.1, SVG Export Plug-In . SVG Version: 6.00 Build 0)  -->
<svg version="1.1" id="레이어_1" xmlns="http://www.w3.org/2000/svg" xmlns:xlink="http://www.w3.org/1999/xlink" x="0px"
	 y="0px" width="24px" height="24px" viewBox="0 0 24 24" style="enable-background:new 0 0 24 24;" xml:space="preserve">
<style type="text/css">
	.st0{fill-rule:evenodd;clip-rule:evenodd;fill:#0044FE;}
	.st1{fill:#0044FE;}
</style>
<path class="st0" d="M16,3.2c-0.4,0-0.8,0.3-0.8,0.8v3.8h4.5V4c0-0.4-0.3-0.8-0.8-0.8H16z M16.8,6.2V4.7h1.5v1.5H16.8z"/>
<path class="st1" d="M2.2,9.5c0-0.4,0.3-0.8,0.8-0.8h18c0.4,0,0.8,0.3,0.8,0.8s-0.3,0.8-0.8,0.8H3C2.6,10.2,2.2,9.9,2.2,9.5z"/>
<path class="st1" d="M2.2,20c0-0.4,0.3-0.8,0.8-0.8h18c0.4,0,0.8,0.3,0.8,0.8s-0.3,0.8-0.8,0.8H3C2.6,20.7,2.2,20.4,2.2,20z"/>
<path class="st0" d="M5,12.7c-0.4,0-0.8,0.3-0.8,0.8v4.8h10v-4.8c0-0.4-0.3-0.8-0.8-0.8H5z M5.8,16.7v-2.5h7v2.5H5.8z"/>
<path class="st0" d="M15.2,13.5c0-0.4,0.3-0.8,0.8-0.8h3c0.4,0,0.8,0.3,0.8,0.8v4.8h-4.5V13.5z M16.8,14.2v2.5h1.5v-2.5H16.8z"/>
<path class="st0" d="M9.8,4c0-0.4,0.3-0.8,0.8-0.8h3c0.4,0,0.8,0.3,0.8,0.8v3.8H9.8V4z M11.2,4.7v1.5h1.5V4.7H11.2z"/>
<path class="st0" d="M5,3.2C4.6,3.2,4.2,3.6,4.2,4v3.8h4.5V4c0-0.4-0.3-0.8-0.8-0.8H5z M5.8,6.2V4.7h1.5v1.5H5.8z"/>
</svg>
