<svg width="17" height="16" viewBox="0 0 17 16" fill="none" xmlns="http://www.w3.org/2000/svg">
<path fill-rule="evenodd" clip-rule="evenodd" d="M12.3159 3.93415C12.6088 4.22704 12.6088 4.70192 12.3159 4.99481L9.31066 8.00001L12.3159 11.0052C12.6088 11.2981 12.6088 11.773 12.3159 12.0659C12.023 12.3588 11.5481 12.3588 11.2552 12.0659L8.25 9.06067L5.2448 12.0659C4.9519 12.3588 4.47703 12.3588 4.18414 12.0659C3.89124 11.773 3.89124 11.2981 4.18414 11.0052L7.18934 8.00001L4.18414 4.99481C3.89124 4.70192 3.89124 4.22704 4.18414 3.93415C4.47703 3.64126 4.9519 3.64126 5.2448 3.93415L8.25 6.93935L11.2552 3.93415C11.5481 3.64126 12.023 3.64126 12.3159 3.93415Z" fill="#4267EB"/>
</svg>
