<?xml version="1.0" encoding="utf-8"?>
<!-- Generator: Adobe Illustrator 25.0.1, SVG Export Plug-In . SVG Version: 6.00 Build 0)  -->
<svg version="1.1" id="레이어_1" xmlns="http://www.w3.org/2000/svg" xmlns:xlink="http://www.w3.org/1999/xlink" x="0px"
	 y="0px" width="16px" height="17px" viewBox="0 0 16 17" style="enable-background:new 0 0 16 17;" xml:space="preserve">
<style type="text/css">
	.st0{fill:#0044FE;}
	.st1{fill-rule:evenodd;clip-rule:evenodd;fill:#0044FE;}
</style>
<path class="st0" d="M8.7,10.7C8.7,10.3,8.4,10,8,10c-0.4,0-0.7,0.3-0.7,0.7v2c0,0.4,0.3,0.7,0.7,0.7c0.4,0,0.7-0.3,0.7-0.7V10.7z"
	/>
<path class="st1" d="M12.7,5.7c0-1.7-0.6-3-1.4-3.8C10.3,1,9.2,0.6,8,0.6C6.8,0.6,5.7,1,4.8,1.9C3.9,2.8,3.3,4.1,3.3,5.7v0.8H2.4
	c-0.9,0-1.6,0.7-1.6,1.6v7.1c0,0.9,0.7,1.6,1.6,1.6h11.1c0.9,0,1.6-0.7,1.6-1.6l0-7.1c0-0.9-0.7-1.6-1.6-1.6h-0.9V5.7z M11.3,6.5
	V5.7c0-1.3-0.4-2.3-1.1-2.9C9.7,2.2,8.8,1.9,8,1.9c-0.8,0-1.7,0.3-2.3,0.9C5.1,3.4,4.7,4.4,4.7,5.7v0.8H11.3z M2.2,8.1
	c0-0.2,0.1-0.3,0.3-0.3h11.1c0.1,0,0.3,0.1,0.3,0.3l0,7.1c0,0.2-0.1,0.3-0.3,0.3H2.4c-0.1,0-0.3-0.1-0.3-0.3V8.1z"/>
</svg>
