<svg width="24" height="24" viewBox="0 0 24 24" fill="none" xmlns="http://www.w3.org/2000/svg">
<path fill-rule="evenodd" clip-rule="evenodd" d="M7.70605 3.36835C8.26704 2.58919 9.19577 2 10.5714 2C11.9471 2 12.8758 2.58919 13.4368 3.36835C13.9716 4.1111 14.1429 4.98094 14.1429 5.57143V16.2857C14.1429 16.6381 14.043 17.1508 13.7225 17.5959C13.3758 18.0775 12.8042 18.4286 12 18.4286C11.1958 18.4286 10.6242 18.0775 10.2775 17.5959C9.95699 17.1508 9.85714 16.6381 9.85714 16.2857V6.64286C9.85714 6.24837 10.1769 5.92857 10.5714 5.92857C10.9659 5.92857 11.2857 6.24837 11.2857 6.64286V16.2857C11.2857 16.4095 11.3287 16.6111 11.4368 16.7612C11.5187 16.8749 11.6614 17 12 17C12.3386 17 12.4813 16.8749 12.5632 16.7612C12.6713 16.6111 12.7143 16.4095 12.7143 16.2857V5.57143C12.7143 5.20954 12.5998 4.65081 12.2775 4.20307C11.9813 3.79176 11.4815 3.42857 10.5714 3.42857C9.66137 3.42857 9.16153 3.79176 8.86538 4.20307C8.54301 4.65081 8.42857 5.20954 8.42857 5.57143V17C8.42857 17.6 8.61444 18.5159 9.1511 19.2612C9.66153 19.9701 10.5185 20.5714 12 20.5714C13.4815 20.5714 14.3385 19.9701 14.8489 19.2612C15.3856 18.5159 15.5714 17.6 15.5714 17V6.64286C15.5714 6.24837 15.8912 5.92857 16.2857 5.92857C16.6802 5.92857 17 6.24837 17 6.64286V17C17 17.8286 16.7573 19.0556 16.0082 20.0959C15.233 21.1727 13.9471 22 12 22C10.0529 22 8.76704 21.1727 7.99176 20.0959C7.2427 19.0556 7 17.8286 7 17V5.57143C7 4.98094 7.17127 4.1111 7.70605 3.36835Z" fill="black"/>
</svg>
