<?xml version="1.0" encoding="utf-8"?>
<!-- Generator: Adobe Illustrator 25.0.1, SVG Export Plug-In . SVG Version: 6.00 Build 0)  -->
<svg version="1.1" id="레이어_1" xmlns="http://www.w3.org/2000/svg" xmlns:xlink="http://www.w3.org/1999/xlink" x="0px"
	 y="0px" width="24px" height="24px" viewBox="0 0 24 24" style="enable-background:new 0 0 24 24;" xml:space="preserve">
<style type="text/css">
	.st0{fill:#0044FE;}
</style>
<path class="st0" d="M10.7,11.6c0-0.2,0.1-0.4,0.2-0.5c0.2-0.2,0.3-0.2,0.5-0.2h1.1c0.2,0,0.4,0.1,0.5,0.2c0.2,0.1,0.2,0.3,0.2,0.5
	s-0.1,0.4-0.2,0.5c-0.1,0.1-0.3,0.2-0.5,0.2h-1.1c-0.2,0-0.4-0.1-0.5-0.2C10.8,11.9,10.7,11.8,10.7,11.6z M11.4,13.6
	c-0.2,0-0.4,0.1-0.5,0.2c-0.1,0.1-0.2,0.3-0.2,0.5s0.1,0.4,0.2,0.5c0.2,0.1,0.3,0.2,0.5,0.2h1.1c0.2,0,0.4-0.1,0.5-0.2
	c0.2-0.2,0.2-0.3,0.2-0.5s-0.1-0.4-0.2-0.5c-0.1-0.2-0.3-0.2-0.5-0.2H11.4z M10.7,17.2c0-0.2,0.1-0.4,0.2-0.5
	c0.2-0.2,0.3-0.2,0.5-0.2h1.1c0.2,0,0.4,0.1,0.5,0.2c0.2,0.1,0.2,0.3,0.2,0.5s-0.1,0.4-0.2,0.5c-0.1,0.1-0.3,0.2-0.5,0.2h-1.1
	c-0.2,0-0.4-0.1-0.5-0.2C10.8,17.6,10.7,17.4,10.7,17.2z M7.3,10.8c-0.2,0-0.4,0.1-0.5,0.2c-0.1,0.1-0.2,0.3-0.2,0.5
	s0.1,0.4,0.2,0.5c0.2,0.1,0.3,0.2,0.5,0.2h1.1c0.2,0,0.4-0.1,0.5-0.2c0.2-0.2,0.2-0.3,0.2-0.5S9.1,11.2,9,11
	c-0.1-0.2-0.3-0.2-0.5-0.2H7.3z M6.6,14.4c0-0.2,0.1-0.4,0.2-0.5c0.2-0.2,0.3-0.2,0.5-0.2h1.1c0.2,0,0.4,0.1,0.5,0.2
	c0.2,0.1,0.2,0.3,0.2,0.5S9.1,14.8,9,14.9c-0.1,0.1-0.3,0.2-0.5,0.2H7.3c-0.2,0-0.4-0.1-0.5-0.2C6.6,14.8,6.6,14.6,6.6,14.4z
	 M7.3,16.4c-0.2,0-0.4,0.1-0.5,0.2c-0.1,0.1-0.2,0.3-0.2,0.5s0.1,0.4,0.2,0.5c0.2,0.1,0.3,0.2,0.5,0.2h1.1c0.2,0,0.4-0.1,0.5-0.2
	c0.2-0.2,0.2-0.3,0.2-0.5S9.1,16.8,9,16.7c-0.1-0.2-0.3-0.2-0.5-0.2H7.3z M14.8,11.6c0-0.2,0.1-0.4,0.2-0.5c0.2-0.2,0.3-0.2,0.5-0.2
	h1.1c0.2,0,0.4,0.1,0.5,0.2c0.2,0.1,0.2,0.3,0.2,0.5s-0.1,0.4-0.2,0.5c-0.1,0.1-0.3,0.2-0.5,0.2h-1.1c-0.2,0-0.4-0.1-0.5-0.2
	C14.9,11.9,14.8,11.8,14.8,11.6z M15.6,13.6c-0.2,0-0.4,0.1-0.5,0.2c-0.1,0.1-0.2,0.3-0.2,0.5s0.1,0.4,0.2,0.5
	c0.2,0.1,0.3,0.2,0.5,0.2h1.1c0.2,0,0.4-0.1,0.5-0.2c0.2-0.2,0.2-0.3,0.2-0.5s-0.1-0.4-0.2-0.5c-0.1-0.2-0.3-0.2-0.5-0.2H15.6z
	 M14.8,17.2c0-0.2,0.1-0.4,0.2-0.5c0.2-0.2,0.3-0.2,0.5-0.2h1.1c0.2,0,0.4,0.1,0.5,0.2c0.2,0.1,0.2,0.3,0.2,0.5s-0.1,0.4-0.2,0.5
	c-0.1,0.1-0.3,0.2-0.5,0.2h-1.1c-0.2,0-0.4-0.1-0.5-0.2C14.9,17.6,14.8,17.4,14.8,17.2z M15.4,4.4V3.7c0-0.2,0.1-0.4,0.2-0.5
	c0.2-0.2,0.3-0.2,0.5-0.2s0.4,0.1,0.5,0.2c0.2,0.1,0.2,0.3,0.2,0.5v0.8h2.1c0.4,0,0.8,0.1,1.1,0.4c0.3,0.3,0.4,0.6,0.4,1.1v13.3
	c0,0.4-0.1,0.8-0.4,1.1c-0.3,0.3-0.6,0.4-1.1,0.4H5.1c-0.4,0-0.8-0.1-1.1-0.4c-0.3-0.3-0.4-0.7-0.4-1.1V5.9c0-0.4,0.1-0.8,0.4-1.1
	c0.3-0.3,0.7-0.4,1.1-0.4h2.1V3.7c0-0.2,0.1-0.4,0.2-0.5C7.5,3,7.7,2.9,7.9,2.9S8.2,3,8.4,3.2c0.2,0.1,0.2,0.3,0.2,0.5v0.8H15.4z
	 M7.9,7.4c-0.2,0-0.4-0.1-0.5-0.2C7.2,7.1,7.1,6.9,7.1,6.7V5.9H5.1V8h13.9V5.9h-2.1v0.8c0,0.2-0.1,0.4-0.2,0.5
	c-0.1,0.1-0.3,0.2-0.5,0.2s-0.4-0.1-0.5-0.2c-0.1-0.2-0.2-0.3-0.2-0.5V5.9H8.6v0.8c0,0.2-0.1,0.4-0.2,0.5C8.2,7.4,8.1,7.4,7.9,7.4z
	 M5.1,9.5v9.8h13.9V9.5H5.1z"/>
</svg>
