<svg width="11" height="12" viewBox="0 0 11 12" fill="none" xmlns="http://www.w3.org/2000/svg">
<path fill-rule="evenodd" clip-rule="evenodd" d="M0.46967 11.5303C0.176777 11.2374 0.176777 10.7626 0.46967 10.4697L4.93934 6L0.46967 1.53033C0.176777 1.23744 0.176777 0.762563 0.46967 0.46967C0.762564 0.176777 1.23744 0.176777 1.53033 0.46967L6.53033 5.46967C6.82322 5.76256 6.82322 6.23744 6.53033 6.53033L1.53033 11.5303C1.23744 11.8232 0.762563 11.8232 0.46967 11.5303Z" fill="black"/>
<path fill-rule="evenodd" clip-rule="evenodd" d="M0.46967 11.5303C0.176777 11.2374 0.176777 10.7626 0.46967 10.4697L4.93934 6L0.46967 1.53033C0.176777 1.23744 0.176777 0.762563 0.46967 0.46967C0.762564 0.176777 1.23744 0.176777 1.53033 0.46967L6.53033 5.46967C6.82322 5.76256 6.82322 6.23744 6.53033 6.53033L1.53033 11.5303C1.23744 11.8232 0.762563 11.8232 0.46967 11.5303Z" fill="black" fill-opacity="0.2"/>
<path fill-rule="evenodd" clip-rule="evenodd" d="M4.46967 11.5303C4.17678 11.2374 4.17678 10.7626 4.46967 10.4697L8.93934 6L4.46967 1.53033C4.17678 1.23744 4.17678 0.762563 4.46967 0.46967C4.76256 0.176777 5.23744 0.176777 5.53033 0.46967L10.5303 5.46967C10.8232 5.76256 10.8232 6.23744 10.5303 6.53033L5.53033 11.5303C5.23744 11.8232 4.76256 11.8232 4.46967 11.5303Z" fill="black"/>
<path fill-rule="evenodd" clip-rule="evenodd" d="M4.46967 11.5303C4.17678 11.2374 4.17678 10.7626 4.46967 10.4697L8.93934 6L4.46967 1.53033C4.17678 1.23744 4.17678 0.762563 4.46967 0.46967C4.76256 0.176777 5.23744 0.176777 5.53033 0.46967L10.5303 5.46967C10.8232 5.76256 10.8232 6.23744 10.5303 6.53033L5.53033 11.5303C5.23744 11.8232 4.76256 11.8232 4.46967 11.5303Z" fill="black" fill-opacity="0.2"/>
</svg>
