<?xml version="1.0" encoding="utf-8"?>
<!-- Generator: Adobe Illustrator 25.0.1, SVG Export Plug-In . SVG Version: 6.00 Build 0)  -->
<svg version="1.1" id="레이어_1" xmlns="http://www.w3.org/2000/svg" xmlns:xlink="http://www.w3.org/1999/xlink" x="0px"
	 y="0px" width="24px" height="24px" viewBox="0 0 24 24" style="enable-background:new 0 0 24 24;" xml:space="preserve">
<style type="text/css">
	.st0{fill-rule:evenodd;clip-rule:evenodd;fill:#FFFFFF;}
	.st1{fill-rule:evenodd;clip-rule:evenodd;fill:#FFFFFF;fill-opacity:0.2;}
</style>
<path class="st0" d="M16.5,2.5c0.3,0.3,0.3,0.8,0,1.1L8.1,12l8.5,8.5c0.3,0.3,0.3,0.8,0,1.1s-0.8,0.3-1.1,0l-9-9
	c-0.3-0.3-0.3-0.8,0-1.1l9-9C15.8,2.2,16.2,2.2,16.5,2.5z"/>
<path class="st1" d="M16.5,2.5c0.3,0.3,0.3,0.8,0,1.1L8.1,12l8.5,8.5c0.3,0.3,0.3,0.8,0,1.1s-0.8,0.3-1.1,0l-9-9
	c-0.3-0.3-0.3-0.8,0-1.1l9-9C15.8,2.2,16.2,2.2,16.5,2.5z"/>
</svg>
