<?xml version="1.0" encoding="utf-8"?>
<!-- Generator: Adobe Illustrator 25.0.1, SVG Export Plug-In . SVG Version: 6.00 Build 0)  -->
<svg version="1.1" id="레이어_1" xmlns="http://www.w3.org/2000/svg" xmlns:xlink="http://www.w3.org/1999/xlink" x="0px"
	 y="0px" width="11px" height="12px" viewBox="0 0 11 12" style="enable-background:new 0 0 11 12;" xml:space="preserve">
<style type="text/css">
	.st0{fill-rule:evenodd;clip-rule:evenodd;fill:#4267EB;}
</style>
<path class="st0" d="M0.5,11.5c-0.3-0.3-0.3-0.8,0-1.1L4.9,6L0.5,1.5c-0.3-0.3-0.3-0.8,0-1.1c0.3-0.3,0.8-0.3,1.1,0l5,5
	c0.3,0.3,0.3,0.8,0,1.1l-5,5C1.2,11.8,0.8,11.8,0.5,11.5z"/>
<path class="st0" d="M4.5,11.5c-0.3-0.3-0.3-0.8,0-1.1L8.9,6L4.5,1.5c-0.3-0.3-0.3-0.8,0-1.1c0.3-0.3,0.8-0.3,1.1,0l5,5
	c0.3,0.3,0.3,0.8,0,1.1l-5,5C5.2,11.8,4.8,11.8,4.5,11.5z"/>
</svg>
