<?xml version="1.0" encoding="utf-8"?>
<!-- Generator: Adobe Illustrator 25.0.1, SVG Export Plug-In . SVG Version: 6.00 Build 0)  -->
<svg version="1.1" id="레이어_1" xmlns="http://www.w3.org/2000/svg" xmlns:xlink="http://www.w3.org/1999/xlink" x="0px"
	 y="0px" width="18px" height="16px" viewBox="0 0 18 16" style="enable-background:new 0 0 18 16;" xml:space="preserve">
<style type="text/css">
	.st0{fill-rule:evenodd;clip-rule:evenodd;fill:#656565;}
	.st1{fill-rule:evenodd;clip-rule:evenodd;fill:#656565;fill-opacity:0.2;}
</style>
<path class="st0" d="M8.6,1c0.3-0.2,0.6-0.2,0.9,0l8,7.5c0.2,0.2,0.3,0.5,0.2,0.7c-0.1,0.2-0.3,0.4-0.6,0.4h-1.8v4.8
	c0,0.4-0.3,0.6-0.7,0.6c-0.4,0-0.7-0.3-0.7-0.6V9c0-0.4,0.3-0.7,0.7-0.7h0.8L9,2.4L2.7,8.3h0.8c0.4,0,0.7,0.3,0.7,0.7v5.5
	c0,0.4-0.3,0.6-0.7,0.6s-0.7-0.3-0.7-0.6V9.7H1c-0.3,0-0.5-0.2-0.6-0.4C0.3,9,0.4,8.7,0.6,8.5L8.6,1z M6.8,10.5
	c0-0.4,0.3-0.7,0.7-0.7h3c0.4,0,0.7,0.3,0.7,0.7v4c0,0.4-0.3,0.6-0.7,0.6c-0.4,0-0.7-0.3-0.7-0.6v-3.3H8.2v3.3
	c0,0.4-0.3,0.6-0.7,0.6c-0.4,0-0.7-0.3-0.7-0.6V10.5z"/>
<path class="st1" d="M8.6,1c0.3-0.2,0.6-0.2,0.9,0l8,7.5c0.2,0.2,0.3,0.5,0.2,0.7c-0.1,0.2-0.3,0.4-0.6,0.4h-1.8v4.8
	c0,0.4-0.3,0.6-0.7,0.6c-0.4,0-0.7-0.3-0.7-0.6V9c0-0.4,0.3-0.7,0.7-0.7h0.8L9,2.4L2.7,8.3h0.8c0.4,0,0.7,0.3,0.7,0.7v5.5
	c0,0.4-0.3,0.6-0.7,0.6s-0.7-0.3-0.7-0.6V9.7H1c-0.3,0-0.5-0.2-0.6-0.4C0.3,9,0.4,8.7,0.6,8.5L8.6,1z M6.8,10.5
	c0-0.4,0.3-0.7,0.7-0.7h3c0.4,0,0.7,0.3,0.7,0.7v4c0,0.4-0.3,0.6-0.7,0.6c-0.4,0-0.7-0.3-0.7-0.6v-3.3H8.2v3.3
	c0,0.4-0.3,0.6-0.7,0.6c-0.4,0-0.7-0.3-0.7-0.6V10.5z"/>
</svg>
