<?xml version="1.0" encoding="utf-8"?>
<!-- Generator: Adobe Illustrator 25.0.1, SVG Export Plug-In . SVG Version: 6.00 Build 0)  -->
<svg version="1.1" id="레이어_1" xmlns="http://www.w3.org/2000/svg" xmlns:xlink="http://www.w3.org/1999/xlink" x="0px"
	 y="0px" width="24px" height="24px" viewBox="0 0 24 24" style="enable-background:new 0 0 24 24;" xml:space="preserve">
<style type="text/css">
	.st0{fill:#0B1293;}
	.st1{fill-rule:evenodd;clip-rule:evenodd;fill:#0B1293;}
</style>
<path class="st0" d="M4.4,12.3c8.6,0.1,13.4-4.8,13.4-4.8l1.6,1.3c0.2,0.2,0.5,0,0.5-0.3l-0.4-5c0-0.3-0.3-0.5-0.6-0.4l-5.1,1
	c-0.3,0.1-0.3,0.4-0.1,0.6l1.8,1C13.7,8.5,9.6,10.3,4.4,12C4.2,12,4.2,12.3,4.4,12.3z"/>
<path class="st1" d="M15.5,12c0-0.8,0.7-1.5,1.5-1.5h2c0.8,0,1.5,0.7,1.5,1.5v8.5h-5V12z M17,19h2v-7h-2V19z"/>
<path class="st1" d="M11,13.5c-0.8,0-1.5,0.7-1.5,1.5v5.5h5V15c0-0.8-0.7-1.5-1.5-1.5H11z M13,19h-2v-4h2V19z"/>
<path class="st1" d="M5,15.5c-0.8,0-1.5,0.7-1.5,1.5v3.5h5V17c0-0.8-0.7-1.5-1.5-1.5H5z M5,19v-2h2v2H5z"/>
</svg>
