<svg width="24" height="24" viewBox="0 0 24 24" fill="none" xmlns="http://www.w3.org/2000/svg">
<path fill-rule="evenodd" clip-rule="evenodd" d="M13.6458 2.43289C14.2258 1.8557 15.1661 1.8557 15.7461 2.43289L21.565 8.22345C22.145 8.80064 22.145 9.73644 21.565 10.3136L12.065 19.7674C11.9257 19.906 11.7368 19.9839 11.5399 19.9839H5.07127L4.2677 20.7836C3.97769 21.0721 3.50751 21.0721 3.2175 20.7836C2.9275 20.495 2.9275 20.0271 3.2175 19.7385L4.02107 18.9388V12.3169C4.02107 12.1209 4.09931 11.9329 4.23858 11.7943L13.6458 2.43289ZM5.50627 18.5059H9.78081L5.50627 14.1356V18.5059ZM5.80682 12.3239L6.87694 13.418L15.7807 4.55748L14.6959 3.47798L5.80682 12.3239ZM16.8309 5.60257L7.91295 14.4772L9.59772 16.1997L18.5388 7.30212L16.8309 5.60257ZM19.589 8.34721L10.6337 17.2589L11.547 18.1927L20.5148 9.26854L19.589 8.34721Z" fill="#0B1293"/>
</svg>
