<?xml version="1.0" encoding="utf-8"?>
<!-- Generator: Adobe Illustrator 25.0.1, SVG Export Plug-In . SVG Version: 6.00 Build 0)  -->
<svg version="1.1" id="레이어_1" xmlns="http://www.w3.org/2000/svg" xmlns:xlink="http://www.w3.org/1999/xlink" x="0px"
	 y="0px" width="24px" height="24px" viewBox="0 0 24 24" style="enable-background:new 0 0 24 24;" xml:space="preserve">
<style type="text/css">
	.st0{fill-rule:evenodd;clip-rule:evenodd;fill:#0B1293;}
</style>
<path class="st0" d="M8,10.7c-0.4,0-0.8,0.3-0.8,0.8v4c0,0.4,0.3,0.8,0.8,0.8h8c0.4,0,0.8-0.3,0.8-0.8v-4c0-0.4-0.3-0.8-0.8-0.8H8z
	 M8.8,14.7v-2.5h6.5v2.5H8.8z"/>
<path class="st0" d="M3.9,3c0.1-0.2,0.4-0.3,0.6-0.3h15c0.2,0,0.4,0.1,0.6,0.3c0.1,0.2,0.2,0.4,0.1,0.6l-0.5,1.9v12.8l0.5,1.9
	c0.1,0.2,0,0.5-0.1,0.6c-0.1,0.2-0.4,0.3-0.6,0.3h-15c-0.2,0-0.4-0.1-0.6-0.3c-0.1-0.2-0.2-0.4-0.1-0.6l0.5-1.9V5.6L3.8,3.7
	C3.7,3.5,3.8,3.2,3.9,3z M5.5,4.2L5.6,5h12.7l0.2-0.8H5.5z M5.8,18V6h1.7l0,3.6c0,0.2,0.2,0.3,0.3,0.2l1.7-1.5l1.7,1.5
	c0.1,0.1,0.3,0,0.3-0.2V6h6.8v12H5.8z M5.6,19h12.7l0.2,0.8H5.5L5.6,19z"/>
</svg>
