<?xml version="1.0" encoding="utf-8"?>
<!-- Generator: Adobe Illustrator 25.0.1, SVG Export Plug-In . SVG Version: 6.00 Build 0)  -->
<svg version="1.1" id="레이어_1" xmlns="http://www.w3.org/2000/svg" xmlns:xlink="http://www.w3.org/1999/xlink" x="0px"
	 y="0px" width="24px" height="24px" viewBox="0 0 24 24" style="enable-background:new 0 0 24 24;" xml:space="preserve">
<style type="text/css">
	.st0{fill-rule:evenodd;clip-rule:evenodd;fill:#0B1293;}
</style>
<path class="st0" d="M13,2.2c-1.5,0-2.8,1.2-2.8,2.8c0,1,0.6,1.9,1.4,2.4c-1.1,0.2-1.9,0.7-2.4,1.4c-0.7,0.9-1,1.9-1,2.6V12
	c0,0.4,0.3,0.8,0.8,0.8h8c0.4,0,0.8-0.3,0.8-0.8v-0.7c0-0.7-0.2-1.7-1-2.6c-0.5-0.6-1.3-1.1-2.4-1.4C15.2,6.9,15.8,6,15.8,5
	C15.8,3.5,14.5,2.2,13,2.2z M11.8,5c0-0.7,0.6-1.3,1.2-1.3s1.2,0.6,1.2,1.3S13.7,6.2,13,6.2S11.8,5.7,11.8,5z M16.2,11.2
	c0-0.4-0.2-1-0.6-1.5c-0.4-0.5-1.2-1-2.6-1s-2.2,0.5-2.6,1c-0.4,0.5-0.6,1.1-0.6,1.5H16.2z"/>
<path class="st0" d="M3,12.7c-0.4,0-0.8,0.3-0.8,0.8v6c0,0.4,0.3,0.8,0.8,0.8h3c0.3,0,0.6-0.2,0.7-0.5h0c0.4,0,0.8,0.1,1.2,0.2
	l3.9,1.5c0.6,0.3,1.4,0.3,2.1,0c0.4-0.2,1.7-0.8,3-1.6c1.4-0.8,2.9-1.6,3.9-2.2l0.1-0.1l0.1-0.1c0,0,0.3-0.3,0.5-0.6
	c0.2-0.4,0.3-0.9,0.1-1.5c-0.2-0.6-0.7-0.8-1.2-0.9c-0.4-0.1-0.8,0-1.1,0.1l0,0l-2.7,1c-0.1-0.6-0.4-1-0.7-1.3
	C15.5,14,15.1,14,15,13.9l-0.1,0h-0.1c-0.5,0-1.2,0-1.9,0c-0.7,0-1.3-0.1-1.5-0.1c-0.2,0-0.4-0.1-0.6-0.1c-0.2-0.1-0.5-0.1-0.8-0.2
	c-0.6-0.1-1.2-0.2-1.8-0.2H6.7C6.6,13,6.3,12.7,6,12.7H3z M6.8,14.7v3.5c0.6,0,1.2,0.1,1.7,0.3l3.9,1.6l0,0c0.1,0,0.2,0.1,0.4,0.1
	c0.2,0,0.4,0,0.5-0.1c0.3-0.1,1.5-0.8,2.9-1.5c1.3-0.7,2.8-1.6,3.8-2.2l0,0c0,0,0.1-0.1,0.1-0.1c0-0.1,0.1-0.1,0.1-0.1
	c0,0,0-0.1,0-0.1c0,0,0,0,0-0.1c0,0,0,0-0.1,0c-0.1,0-0.3,0-0.4,0l-4.5,1.7c-0.3,0.1-0.6,0.2-0.9,0.2h-2.2c-0.4,0-0.8-0.3-0.8-0.8
	s0.3-0.8,0.8-0.8h2.2c0.1,0,0.2,0,0.3-0.1c0.2-0.1,0.3-0.2,0.4-0.3c0.1-0.1,0.1-0.2,0.1-0.2c0-0.1,0-0.2,0-0.2c0,0,0-0.1-0.1-0.1
	c-0.1-0.1-0.2-0.1-0.3-0.1c-0.5,0-1.2,0-1.8,0c-0.7,0-1.3-0.1-1.7-0.1c-0.2,0-0.4-0.1-0.7-0.1l0,0c-0.3-0.1-0.5-0.1-0.8-0.2
	c-0.6-0.1-1.1-0.2-1.5-0.2H6.8z M5.2,14.2H3.8v4.5h1.5V14.2z"/>
</svg>
