<svg width="24" height="24" viewBox="0 0 24 24" fill="none" xmlns="http://www.w3.org/2000/svg">
<path fill-rule="evenodd" clip-rule="evenodd" d="M11.7593 2.29624C11.5593 2.22257 11.3374 2.23745 11.1491 2.33716L2.64908 6.83716C2.40356 6.96714 2.25 7.22219 2.25 7.5V17.5C2.25 17.8067 2.43671 18.0825 2.72146 18.1964L12.7215 22.1964C12.9435 22.2852 13.1947 22.2628 13.3975 22.136L21.3975 17.136C21.6168 16.9989 21.75 16.7586 21.75 16.5V6.5C21.75 6.18578 21.5541 5.90487 21.2593 5.79624L11.7593 2.29624ZM4.7822 7.40511L11.555 3.81953L13.1296 4.39966L6.55307 8.11346L4.7822 7.40511ZM5.5 9.30778L3.75 8.60778V16.9922L12.25 20.3922V12.0078L10 11.1078V15.5C10 15.7123 9.86588 15.9015 9.6655 15.9718C9.46513 16.0421 9.24222 15.9782 9.10957 15.8123L7.39593 13.6703L6.27735 14.416C6.12392 14.5183 5.92665 14.5278 5.76407 14.4408C5.60149 14.3538 5.5 14.1844 5.5 14V9.30778ZM9 10.7078V14.0746L7.89043 12.6876C7.72842 12.4851 7.43845 12.4401 7.22265 12.584L6.5 13.0657V9.70778L9 10.7078ZM9.62468 9.3421L7.74352 8.58963L14.3603 4.85309L16.0617 5.4799L9.62468 9.3421ZM10.7909 9.80857L12.9252 10.6623L19.3051 6.67486L17.2659 5.92356L10.7909 9.80857ZM13.75 11.9157L20.25 7.85319V16.0843L13.75 20.1468V11.9157Z" fill="black"/>
<path fill-rule="evenodd" clip-rule="evenodd" d="M11.7593 2.29624C11.5593 2.22257 11.3374 2.23745 11.1491 2.33716L2.64908 6.83716C2.40356 6.96714 2.25 7.22219 2.25 7.5V17.5C2.25 17.8067 2.43671 18.0825 2.72146 18.1964L12.7215 22.1964C12.9435 22.2852 13.1947 22.2628 13.3975 22.136L21.3975 17.136C21.6168 16.9989 21.75 16.7586 21.75 16.5V6.5C21.75 6.18578 21.5541 5.90487 21.2593 5.79624L11.7593 2.29624ZM4.7822 7.40511L11.555 3.81953L13.1296 4.39966L6.55307 8.11346L4.7822 7.40511ZM5.5 9.30778L3.75 8.60778V16.9922L12.25 20.3922V12.0078L10 11.1078V15.5C10 15.7123 9.86588 15.9015 9.6655 15.9718C9.46513 16.0421 9.24222 15.9782 9.10957 15.8123L7.39593 13.6703L6.27735 14.416C6.12392 14.5183 5.92665 14.5278 5.76407 14.4408C5.60149 14.3538 5.5 14.1844 5.5 14V9.30778ZM9 10.7078V14.0746L7.89043 12.6876C7.72842 12.4851 7.43845 12.4401 7.22265 12.584L6.5 13.0657V9.70778L9 10.7078ZM9.62468 9.3421L7.74352 8.58963L14.3603 4.85309L16.0617 5.4799L9.62468 9.3421ZM10.7909 9.80857L12.9252 10.6623L19.3051 6.67486L17.2659 5.92356L10.7909 9.80857ZM13.75 11.9157L20.25 7.85319V16.0843L13.75 20.1468V11.9157Z" fill="black" fill-opacity="0.2"/>
</svg>
