<svg width="85" height="127" viewBox="0 0 85 127" fill="none" xmlns="http://www.w3.org/2000/svg">
<rect x="9" y="13" width="76" height="114" rx="6" fill="#4267EB" fill-opacity="0.2"/>
<path fill-rule="evenodd" clip-rule="evenodd" d="M40 74C51.0457 74 60 65.0457 60 54C60 42.9543 51.0457 34 40 34C28.9543 34 20 42.9543 20 54C20 65.0457 28.9543 74 40 74ZM40 76C52.1503 76 62 66.1503 62 54C62 41.8497 52.1503 32 40 32C27.8497 32 18 41.8497 18 54C18 66.1503 27.8497 76 40 76Z" fill="#4267EB"/>
<path fill-rule="evenodd" clip-rule="evenodd" d="M72 2H8C4.68629 2 2 4.68629 2 8V112C2 115.314 4.68629 118 8 118H72C75.3137 118 78 115.314 78 112V8C78 4.68629 75.3137 2 72 2ZM8 0C3.58172 0 0 3.58172 0 8V112C0 116.418 3.58172 120 8 120H72C76.4183 120 80 116.418 80 112V8C80 3.58172 76.4183 0 72 0H8Z" fill="#4267EB"/>
<path fill-rule="evenodd" clip-rule="evenodd" d="M50.9819 44.866C51.6082 45.4083 51.6763 46.3556 51.134 46.9819L38.1467 61.9819C37.8633 62.3091 37.4524 62.498 37.0195 62.5C36.5866 62.502 36.174 62.3168 35.8876 61.9921L29.875 55.174C29.3271 54.5526 29.3866 53.6047 30.0079 53.0568C30.6292 52.5089 31.5771 52.5684 32.1251 53.1897L37.0023 58.7204L48.866 45.0182C49.4083 44.3919 50.3556 44.3238 50.9819 44.866Z" fill="#4267EB"/>
<rect x="29" y="110" width="23" height="2" rx="1" fill="#4267EB"/>
</svg>
